GRF
version=1
nRows=30
nColumns=19
inDegrees=no
endheader
time	right_ground_force_vx	right_ground_force_vy	right_ground_force_vz	right_ground_force_px	right_ground_force_py	right_ground_force_pz	right_ground_torque_x	right_ground_torque_y	right_ground_torque_z	left_ground_force_vx	left_ground_force_vy	left_ground_force_vz	left_ground_force_px	left_ground_force_py	left_ground_force_pz	left_ground_torque_x	left_ground_torque_y	left_ground_torque_z
      1.19000000	      0.00000000	      0.00000000	     -0.00000000	     -0.19455894	      0.00000000	     -0.21235670	      0.00000000	      0.00000000	      0.00000000	      0.00227778	      0.13803491	      0.00845943	      0.41201988	      0.00000000	     -0.28963017	      0.00000000	     -0.00051753	     -0.00000000
      1.20000000	      0.00000000	      0.00000000	     -0.00000000	     -0.19455894	      0.00000000	     -0.21235670	      0.00000000	      0.00000000	      0.00000000	      0.00846736	      0.39668697	      0.02382032	      0.41200962	      0.00000000	     -0.28962687	      0.00000000	     -0.00128504	     -0.00000000
      1.21000000	      0.00000000	      0.00000000	     -0.00000000	     -0.19455894	      0.00000000	     -0.21235670	      0.00000000	      0.00000000	      0.00000000	      0.02799096	      1.04113479	      0.06090686	      0.41198300	      0.00000000	     -0.28961929	      0.00000000	     -0.00276363	     -0.00000000
      1.22000000	      0.00000000	      0.00000000	     -0.00000000	     -0.19455894	      0.00000000	     -0.21235670	      0.00000000	      0.00000000	      0.00000000	      0.08297907	      2.49926274	      0.14136177	      0.41192021	      0.00000000	     -0.28960401	      0.00000000	     -0.00495912	     -0.00000000
      1.23000000	      0.00000000	      0.00000000	     -0.00000000	     -0.19455894	      0.00000000	     -0.21235670	      0.00000000	      0.00000000	      0.00000000	      0.22191733	      5.49737842	      0.29761623	      0.41178534	      0.00000000	     -0.28957749	      0.00000000	     -0.00669885	     -0.00000000
      1.24000000	      0.00000000	      0.00000000	     -0.00000000	     -0.19455894	      0.00000000	     -0.21235670	      0.00000000	      0.00000000	      0.00000000	      0.53792297	     11.10490001	      0.56774343	      0.41152091	      0.00000000	     -0.28953962	      0.00000000	     -0.00386120	     -0.00000000
      1.25000000	      0.00000000	      0.00000000	     -0.00000000	     -0.19455894	      0.00000000	     -0.21235670	      0.00000000	      0.00000000	      0.00000000	      1.18661744	     20.65821741	      0.97947549	      0.41104604	      0.00000000	     -0.28950088	      0.00000000	      0.01314436	      0.00000000
      1.26000000	      0.00000000	      0.00000000	     -0.00000000	     -0.19455894	      0.00000000	     -0.21235670	      0.00000000	      0.00000000	      0.00000000	      2.39120159	     35.51160518	      1.52319820	      0.41026116	      0.00000000	     -0.28949233	      0.00000000	      0.06171446	      0.00000000
      1.27000000	      0.00000000	      0.00000000	     -0.00000000	     -0.19455894	      0.00000000	     -0.21235670	      0.00000000	      0.00000000	      0.00000000	      4.41890735	     56.64385152	      2.12263878	      0.40905947	      0.00000000	     -0.28957497	      0.00000000	      0.16742813	      0.00000000
      1.28000000	      0.00000000	      0.00000000	     -0.00000000	     -0.19455894	      0.00000000	     -0.21235670	      0.00000000	      0.00000000	      0.00000000	      7.51992959	     84.25816102	      2.62071824	      0.40734136	      0.00000000	     -0.28984208	      0.00000000	      0.36066316	      0.00000000
      1.29000000	      0.00000000	      0.00000000	     -0.00000000	     -0.19455894	      0.00000000	     -0.21235670	      0.00000000	     -0.00000000	     -0.00000000	     11.83955515	    117.57118245	      2.79805779	      0.40502513	      0.00000000	     -0.29040874	      0.00000000	      0.66914339	      0.00000000
      1.30000000	      0.00000000	      0.00000000	     -0.00000000	     -0.19455894	      0.00000000	     -0.21235670	      0.00000000	     -0.00000000	     -0.00000000	     17.33748931	    154.92543305	      2.42762475	      0.40205040	      0.00000000	     -0.29138760	      0.00000000	      1.10867120	      0.00000000
      1.31000000	      0.00000000	      0.00000000	     -0.00000000	     -0.19455894	      0.00000000	     -0.21235670	      0.00000000	     -0.00000000	     -0.00000000	     23.75708301	    194.19278034	      1.34679884	      0.39837614	      0.00000000	     -0.29285784	      0.00000000	      1.67616413	      0.00000000
      1.32000000	      0.00000000	      0.00000000	     -0.00000000	     -0.19455894	      0.00000000	     -0.21235670	      0.00000000	     -0.00000000	     -0.00000000	     30.66810199	    233.27524862	     -0.48643881	      0.39398062	      0.00000000	     -0.29483959	      0.00000000	      2.34844952	      0.00000000
      1.33000000	      0.00000000	      0.00000000	     -0.00000000	     -0.19455894	      0.00000000	     -0.21235670	      0.00000000	     -0.00000000	     -0.00000000	     37.56739899	    270.47374234	     -2.98031106	      0.38886880	      0.00000000	     -0.29728480	      0.00000000	      3.08709691	      0.00000000
      1.34000000	      0.00000000	      0.00000000	     -0.00000000	     -0.19455894	      0.00000000	     -0.21235670	      0.00000000	     -0.00000000	     -0.00000000	     43.98960563	    304.60754584	     -5.94206815	      0.38308519	      0.00000000	     -0.30008805	      0.00000000	      3.84622244	      0.00000000
      1.35000000	      0.00000000	      0.00000000	     -0.00000000	     -0.19455894	      0.00000000	     -0.21235670	      0.00000000	     -0.00000000	     -0.00000000	     49.57969308	    334.93140649	     -9.13565630	      0.37672327	      0.00000000	     -0.30311190	      0.00000000	      4.57938399	      0.00000000
      1.36000000	      0.00000000	      0.00000000	     -0.00000000	     -0.19455894	      0.00000000	     -0.21235670	      0.00000000	     -0.00000000	     -0.00000000	     54.11018948	    360.98866899	    -12.33564666	      0.36992205	      0.00000000	     -0.30621668	      0.00000000	      5.24383957	      0.00000000
      1.37000000	      0.00000000	      0.00000000	     -0.00000000	     -0.19455894	      0.00000000	     -0.21235670	      0.00000000	     -0.00000000	     -0.00000000	     57.46156048	    382.51345149	    -15.35969503	      0.36284726	      0.00000000	     -0.30928552	      0.00000000	      5.80328039	      0.00000000
      1.38000000	      0.00000000	      0.00000000	     -0.00000000	     -0.19455894	      0.00000000	     -0.21235670	      0.00000000	     -0.00000000	     -0.00000000	     59.59740009	    399.40639377	    -18.07852665	      0.35566340	      0.00000000	     -0.31223953	      0.00000000	      6.23097391	      0.00000000
      1.39000000	      0.00000000	      0.00000000	     -0.00000000	     -0.19455894	      0.00000000	     -0.21235670	      0.00000000	     -0.00000000	     -0.00000000	     60.55237158	    411.74142009	    -20.41237273	      0.34850710	      0.00000000	     -0.31504167	      0.00000000	      6.51359171	      0.00000000
      1.40000000	      0.00000000	      0.00000000	     -0.00000000	     -0.19455894	      0.00000000	     -0.21235670	      0.00000000	     -0.00000000	     -0.00000000	     60.42885972	    419.75492021	    -22.32300673	      0.34147072	      0.00000000	     -0.31769128	      0.00000000	      6.65385255	      0.00000000
      1.41000000	      0.00000000	      0.00000000	     -0.00000000	     -0.19455894	      0.00000000	     -0.21235670	      0.00000000	     -0.00000000	     -0.00000000	     59.38853381	    423.80379788	    -23.80608313	      0.33459871	      0.00000000	     -0.32021231	      0.00000000	      6.66974727	      0.00000000
      1.42000000	      0.00000000	      0.00000000	     -0.00000000	     -0.19455894	      0.00000000	     -0.21235670	      0.00000000	     -0.00000000	     -0.00000000	     57.63174604	    424.31256952	    -24.88478286	      0.32789454	      0.00000000	     -0.32263947	      0.00000000	      6.58987725	      0.00000000
      1.43000000	      0.00000000	      0.00000000	     -0.00000000	     -0.19455894	      0.00000000	     -0.21235670	      0.00000000	     -0.00000000	     -0.00000000	     55.36978792	    421.73720771	    -25.60440375	      0.32133363	      0.00000000	     -0.32500627	      0.00000000	      6.44668361	      0.00000000
      1.44000000	      0.00000000	      0.00000000	     -0.00000000	     -0.19455894	      0.00000000	     -0.21235670	      0.00000000	     -0.00000000	     -0.00000000	     52.80018454	    416.55792077	    -26.02736970	      0.31487884	      0.00000000	     -0.32733712	      0.00000000	      6.27019876	      0.00000000
      1.45000000	      0.00000000	      0.00000000	     -0.00000000	     -0.19455894	      0.00000000	     -0.21235670	      0.00000000	     -0.00000000	     -0.00000000	     50.09095706	    409.29216499	    -26.22793497	      0.30849704	      0.00000000	     -0.32964371	      0.00000000	      6.08399168	      0.00000000
      1.46000000	      0.00000000	      0.00000000	     -0.00000000	     -0.19455894	      0.00000000	     -0.21235670	      0.00000000	     -0.00000000	     -0.00000000	     47.37257022	    400.50773121	    -26.28548571	      0.30217550	      0.00000000	     -0.33192423	      0.00000000	      5.90331858	      0.00000000
      1.47000000	      0.00000000	      0.00000000	     -0.00000000	     -0.19455894	      0.00000000	     -0.21235670	      0.00000000	     -0.00000000	     -0.00000000	     44.73313502	    390.81788054	    -26.27550186	      0.29593566	      0.00000000	     -0.33416345	      0.00000000	      5.73453859	      0.00000000
      1.48000000	      0.00000000	      0.00000000	     -0.00000000	     -0.19455894	      0.00000000	     -0.21235670	      0.00000000	     -0.00000000	     -0.00000000	     42.21480764	    380.85135093	    -26.25862191	      0.28984045	      0.00000000	     -0.33633280	      0.00000000	      5.57508492	      0.00000000
